<svg host="65bd71144e" xmlns="http://www.w3.org/2000/svg" style="background: transparent; background-color: transparent; color-scheme: light dark;" xmlns:xlink="http://www.w3.org/1999/xlink" version="1.1" width="510px" height="445px" viewBox="-0.5 -0.5 510 445" content="&lt;mxfile&gt;&lt;diagram id=&quot;BG7DCaCyMTpgynOFlwWY&quot; name=&quot;Page-1&quot;&gt;7Vrfc6soFP5r8lhHRKN5bH50d2f2znamO7O7j0ZJwlTFQdIk969fQDQipG0Smzu9t+lD5QgI33fOxwEdwVm+/43G5eYbSVE28tx0P4LzkecB3xvzf8JyqC0hdGvDmuK0NnUMT/g7Ui0b6xanqFK22sQIyRgudWNCigIlTLPFlJKdXm1FslQzlPEaacMQhqckzpBR7R+csk1tjYJO7d8RXm+aJwNX3VnGyfOakm2hnleQAtV38rjpRlWtNnFKdh0TXIzgjBLC6qt8P0OZgFVH7OHE3XbIFBXsPQ1g3eAlzrZq1mpc7NDAICeCRH13BKe7DWboqYwTcXfHiee2DcszXgL8UnWHKEP7k0MC7US57yCSI0YPvIpqcNeM4dDgGtXl3ZGEwJ3Utk2HAB8EinxF/Lrt+4gAv1Ag2AHxDUCevv39yC1/8Ull8cGAh0+U6RjEGV4X/DrhE0aUGwQcmPvVvbqR4zQVzacUVfh7vJRdCXBLggsmBx9MR8Fc9LVlpKojQ3RdMUqe0YxkhPc7l34FpyucZT3TADSAyHUCjYhoYvAwGZs0NGF/DQuBwcIclRk55GLwfQbiqqzDf4X3wk+n1TNiyUZh2iEmjauN7siV7sgNUX/GS5Q9cuAZJoKwJWGM5BYmGSl7BIw86EVhsPAMtvidlfwZRE9dx3X5lGeuM4bin+Dem8kbQJq9nnVitcou+jUnJzoOZWt+39IJ6Nm8qFdX+ibXrlKAl+/XYgFwnrdLRAvEUXUw12SBQEn/SCSCqaRvALeEkeaT0DOdshFoTRui651ybEoDoi84QV8e+Qk9snpJhlBJ39f80XNti9XH+GNo8ceEoi+B/ETueDRJSBUPRyftEHqVn7ZO2OqmdzM/bYSz45Eo5Zm2KqqUpeOGq4zs7gvMk+Xau46JpWj3OgL8MWRLE1VLjZ7FdI2a9CSwA0VRxp/3ond/zbQjIzxFwOy/ovPzRGcbhyVJP2CxuGUQTs6MQT4levhXOJskVxn+kwZOhirP98od69KhW3pEFPNhih2QNF4WwYEZwdGNArg5h7gEMx2xS+AaTgTHPxBCzxBBA9Ozzhcse91WFhuNfIwZh1FgxqfJ87FhtsO9Q4kIGKELmzrabtgPB4ARGKjdOnrRHrO6QyHJdbnbHy8euxOFQ6cwjBRYFvPwVn5snpMVcd6sv/cjb5yJQ6Al5VdrcVXlrLwTw/iFDoy8ce/ACFg25xG0rG9DMGSmW/dl+ZVs/bLJFgx7O/PmdPgWO56fZtmDvZTVtu4BYIER+N4AOJ4ru3FZZjzmZCj+KroLg/AH6q7lqN5AXtNSsmUZLjg0zUs79w1Ssp7AGmydqcB9KdqhpZCgylnnMeajmHJzivlDOmI8f5gv5oshFklfp8oPQoMq3/JSxR/gpUpzYHhJFqmSvmuzyOE2NcCSDY5vlA1CeCaQw03blgRD78p5y6b3lIpkta2gJO7Y86MwHD3Z9/U3MX4YdTF8sz6cuD3M6xEcGWin8j7vNhNAg6U3FaN9He/2U0BDljr0ntAZuQQ0Xw4Ai/LkJHnelk6Oq8QR2mPNAyfyN9BSEU50zsZtyt7Vn8DUH2+AXezlZ1B3POmNdP0JeGJycwHSzpGvPUOxhwmYAJ2iyNW7qNVAteqBf17EQPB2xFi8/GTw2FfuafsxjG1z857QsYaF60bug/tqyPbDDZMqdOqlPuORJ7d/QyzpY+ioKK1/PV10PSPCAHAsR0XAH2BpMnceswzbvprQNr7WpGxFtByI/z2Ihxr5kSW7barPT6XCGlEXJnKvSbIYu/qiDHhNWU1eynn/HEAud4guXlCd2Nv0Ot5VvrOt5LM+QI3h2JILWrS4sZ3hJ7x4/KaslorjN3tw8T8=&lt;/diagram&gt;&lt;/mxfile&gt;">
    <defs>
        <style>
            @keyframes ge-flow-animation-hIQq5fXzEb5CmM2r5lTH {
  to {
    stroke-dashoffset: 0;
  }
}
        </style>
        <linearGradient x1="0%" y1="0%" x2="0%" y2="100%" id="drawio-svg-4bYG-oQUSJfMO6u7vfX1-gradient-light-dark_ffffff_var_--ge-dark-color_121212_-1-light-dark_dfdede_2f2e2e_-1-s-0">
            <stop offset="0%" stop-color="#ffffff" stop-opacity="1" style="stop-color: light-dark(#ffffff, var(--ge-dark-color, #121212)); stop-opacity: 1;"/>
            <stop offset="100%" stop-color="#DFDEDE" stop-opacity="1" style="stop-color: light-dark(rgb(223, 222, 222), rgb(47, 46, 46)); stop-opacity: 1;"/>
        </linearGradient>
    </defs>
    <g>
        <g>
            <rect x="0" y="29" width="509" height="415" fill="#ffffff" stroke="#000000" pointer-events="all" style="fill: light-dark(#ffffff, var(--ge-dark-color, #121212)); stroke: light-dark(rgb(0, 0, 0), rgb(255, 255, 255));"/>
        </g>
        <g>
            <rect x="202.5" y="0" width="96" height="26" fill="none" stroke="none" pointer-events="all"/>
        </g>
        <g>
            <g transform="translate(-0.5 -0.5)">
                <switch>
                    <foreignObject style="overflow: visible; text-align: left;" pointer-events="none" width="100%" height="100%" requiredFeatures="http://www.w3.org/TR/SVG11/feature#Extensibility">
                        <div xmlns="http://www.w3.org/1999/xhtml" style="display: flex; align-items: unsafe center; justify-content: unsafe center; width: 1px; height: 1px; padding-top: 13px; margin-left: 251px;">
                            <div style="box-sizing: border-box; font-size: 0; text-align: center; color: #000000; ">
                                <div style="display: inline-block; font-size: 12px; font-family: &quot;Helvetica&quot;; color: light-dark(#000000, #ffffff); line-height: 1.2; pointer-events: all; white-space: nowrap; ">
                                    SMTP Overlay
                                </div>
                            </div>
                        </div>
                    </foreignObject>
                    <text x="251" y="17" fill="light-dark(#000000, #ffffff)" font-family="&quot;Helvetica&quot;" font-size="12px" text-anchor="middle">
                        SMTP Overlay
                    </text>
                </switch>
            </g>
        </g>
        <g>
            <path d="M 84.82 240.03 C 84.38 240.05 83.94 240.16 83.56 240.36 L 66.37 248.55 C 65.47 248.99 64.81 249.81 64.59 250.77 L 60.34 269.22 C 60.15 270.07 60.31 270.98 60.78 271.72 C 60.86 271.8 60.92 271.88 60.97 271.99 L 72.87 286.77 C 73.5 287.53 74.46 288 75.45 288 L 94.53 288 C 95.51 288 96.47 287.53 97.1 286.77 L 109 271.96 C 109.6 271.2 109.85 270.18 109.63 269.22 L 105.38 250.77 C 105.16 249.81 104.5 248.99 103.6 248.55 L 86.41 240.36 C 85.92 240.11 85.37 240 84.82 240.03 Z" fill="#ffffff" stroke="none" pointer-events="all" style="fill: light-dark(rgb(255, 255, 255), rgb(18, 18, 18));"/>
            <path d="M 84.83 241.47 C 84.42 241.49 84.01 241.59 83.65 241.77 L 67.49 249.48 C 66.64 249.89 66.02 250.66 65.82 251.57 L 61.82 268.91 C 61.64 269.71 61.8 270.56 62.23 271.25 C 62.31 271.33 62.36 271.41 62.41 271.51 L 73.6 285.4 C 74.19 286.12 75.09 286.56 76.02 286.56 L 93.95 286.56 C 94.88 286.56 95.78 286.12 96.38 285.4 L 107.56 271.49 C 108.13 270.76 108.36 269.81 108.15 268.91 L 104.16 251.57 C 103.95 250.66 103.33 249.89 102.48 249.48 L 86.33 241.77 C 85.86 241.54 85.35 241.44 84.83 241.47 Z" fill="#2875e2" stroke="none" pointer-events="all" style="fill: light-dark(rgb(40, 117, 226), rgb(85, 151, 245));"/>
            <path d="M 84.7 252.66 L 84.07 252.68 C 77.25 253.08 72.04 258.91 72.4 265.73 C 72.76 272.55 78.56 277.8 85.39 277.48 L 85.15 272.56 C 81.03 272.76 77.53 269.59 77.31 265.47 C 77.09 261.35 80.24 257.83 84.36 257.59 C 88.37 257.35 91.84 260.32 92.25 264.28 L 87.93 264.28 L 91.83 273.83 L 100.84 264.28 L 96.96 264.28 L 97.19 264.27 C 96.76 257.67 91.25 252.6 84.7 252.66 Z" fill="#ffffff" stroke="none" pointer-events="all" style="fill: light-dark(rgb(255, 255, 255), rgb(18, 18, 18));"/>
        </g>
        <g>
            <g transform="translate(-0.5 -0.5)">
                <switch>
                    <foreignObject style="overflow: visible; text-align: left;" pointer-events="none" width="100%" height="100%" requiredFeatures="http://www.w3.org/TR/SVG11/feature#Extensibility">
                        <div xmlns="http://www.w3.org/1999/xhtml" style="display: flex; align-items: unsafe flex-start; justify-content: unsafe center; width: 1px; height: 1px; padding-top: 295px; margin-left: 85px;">
                            <div style="box-sizing: border-box; font-size: 0; text-align: center; color: #000000; ">
                                <div style="display: inline-block; font-size: 12px; font-family: &quot;Helvetica&quot;; color: light-dark(#000000, #ffffff); line-height: 1.2; pointer-events: all; white-space: nowrap; ">
                                    Deployment
                                </div>
                            </div>
                        </div>
                    </foreignObject>
                    <text x="85" y="307" fill="light-dark(#000000, #ffffff)" font-family="&quot;Helvetica&quot;" font-size="12px" text-anchor="middle">
                        Deployme...
                    </text>
                </switch>
            </g>
        </g>
        <g>
            <path d="M 190.82 119.03 C 190.38 119.05 189.94 119.16 189.56 119.36 L 172.37 127.55 C 171.47 127.99 170.81 128.81 170.59 129.77 L 166.34 148.22 C 166.15 149.07 166.31 149.98 166.78 150.72 C 166.86 150.8 166.92 150.88 166.97 150.99 L 178.87 165.77 C 179.5 166.53 180.46 167 181.45 167 L 200.53 167 C 201.51 167 202.47 166.53 203.1 165.77 L 215 150.96 C 215.6 150.2 215.85 149.18 215.63 148.22 L 211.38 129.77 C 211.16 128.81 210.5 127.99 209.6 127.55 L 192.41 119.36 C 191.92 119.11 191.37 119 190.82 119.03 Z" fill="#ffffff" stroke="none" pointer-events="all" style="fill: light-dark(rgb(255, 255, 255), rgb(18, 18, 18));"/>
            <path d="M 190.83 120.47 C 190.42 120.49 190.01 120.59 189.65 120.77 L 173.49 128.48 C 172.64 128.89 172.02 129.66 171.82 130.57 L 167.82 147.91 C 167.64 148.71 167.8 149.56 168.23 150.25 C 168.31 150.33 168.36 150.41 168.41 150.51 L 179.6 164.4 C 180.19 165.12 181.09 165.56 182.02 165.56 L 199.95 165.56 C 200.88 165.56 201.78 165.12 202.38 164.4 L 213.56 150.49 C 214.13 149.76 214.36 148.81 214.15 147.91 L 210.16 130.57 C 209.95 129.66 209.33 128.89 208.48 128.48 L 192.33 120.77 C 191.86 120.54 191.35 120.44 190.83 120.47 Z" fill="#2875e2" stroke="none" pointer-events="all" style="fill: light-dark(rgb(40, 117, 226), rgb(85, 151, 245));"/>
            <path d="M 184.88 132.25 L 184.88 137.68 L 190.3 137.68 L 190.3 137.68 L 190.28 137.68 L 190.28 142.3 L 180.47 142.3 C 180.08 142.3 179.77 142.61 179.77 143 L 179.77 148.32 L 181.17 148.32 L 181.17 143.7 L 190.32 143.7 L 190.32 148.32 L 191.72 148.32 L 191.72 143.7 L 200.83 143.7 L 200.83 148.32 L 202.23 148.32 L 202.23 143 C 202.23 142.81 202.16 142.63 202.03 142.5 C 201.89 142.37 201.72 142.3 201.53 142.3 L 191.7 142.3 L 191.7 137.68 L 197.12 137.68 L 197.12 132.25 Z M 176.6 148.32 L 176.6 153.75 L 184.32 153.75 L 184.32 148.32 Z M 187.14 148.32 L 187.14 153.75 L 194.86 153.75 L 194.86 148.32 Z M 197.68 148.32 L 197.68 153.75 L 205.4 153.75 L 205.4 148.32 Z" fill="#ffffff" stroke="none" pointer-events="all" style="fill: light-dark(rgb(255, 255, 255), rgb(18, 18, 18));"/>
        </g>
        <g>
            <g transform="translate(-0.5 -0.5)">
                <switch>
                    <foreignObject style="overflow: visible; text-align: left;" pointer-events="none" width="100%" height="100%" requiredFeatures="http://www.w3.org/TR/SVG11/feature#Extensibility">
                        <div xmlns="http://www.w3.org/1999/xhtml" style="display: flex; align-items: unsafe flex-start; justify-content: unsafe center; width: 1px; height: 1px; padding-top: 174px; margin-left: 191px;">
                            <div style="box-sizing: border-box; font-size: 0; text-align: center; color: #000000; ">
                                <div style="display: inline-block; font-size: 12px; font-family: &quot;Helvetica&quot;; color: light-dark(#000000, #ffffff); line-height: 1.2; pointer-events: all; white-space: nowrap; ">
                                    Service
                                </div>
                            </div>
                        </div>
                    </foreignObject>
                    <text x="191" y="186" fill="light-dark(#000000, #ffffff)" font-family="&quot;Helvetica&quot;" font-size="12px" text-anchor="middle">
                        Service
                    </text>
                </switch>
            </g>
        </g>
        <g>
            <path d="M 296.82 233.03 C 296.38 233.05 295.94 233.16 295.56 233.36 L 278.37 241.55 C 277.47 241.99 276.81 242.81 276.59 243.77 L 272.34 262.22 C 272.15 263.07 272.31 263.98 272.78 264.72 C 272.86 264.8 272.92 264.88 272.97 264.99 L 284.87 279.77 C 285.5 280.53 286.46 281 287.45 281 L 306.53 281 C 307.51 281 308.47 280.53 309.1 279.77 L 321 264.96 C 321.6 264.2 321.85 263.18 321.63 262.22 L 317.38 243.77 C 317.16 242.81 316.5 241.99 315.6 241.55 L 298.41 233.36 C 297.92 233.11 297.37 233 296.82 233.03 Z" fill="#ffffff" stroke="none" pointer-events="all" style="fill: light-dark(rgb(255, 255, 255), rgb(18, 18, 18));"/>
            <path d="M 296.83 234.47 C 296.42 234.49 296.01 234.59 295.65 234.77 L 279.49 242.48 C 278.64 242.89 278.02 243.66 277.82 244.57 L 273.82 261.91 C 273.64 262.71 273.8 263.56 274.23 264.25 C 274.31 264.33 274.36 264.41 274.41 264.51 L 285.6 278.4 C 286.19 279.12 287.09 279.56 288.02 279.56 L 305.95 279.56 C 306.88 279.56 307.78 279.12 308.38 278.4 L 319.56 264.49 C 320.13 263.76 320.36 262.81 320.15 261.91 L 316.16 244.57 C 315.95 243.66 315.33 242.89 314.48 242.48 L 298.33 234.77 C 297.86 234.54 297.35 234.44 296.83 234.47 Z" fill="#2875e2" stroke="none" pointer-events="all" style="fill: light-dark(rgb(40, 117, 226), rgb(85, 151, 245));"/>
            <path d="M 292.42 243.1 L 292.42 245.29 L 294.45 245.29 C 295.25 244.97 296.13 244.79 297.06 244.79 C 297.96 244.79 298.84 244.96 299.67 245.29 L 308.52 245.29 L 308.52 243.1 Z M 285.48 243.1 L 285.48 245.29 L 289.51 245.29 L 289.51 243.1 Z M 296.99 245.52 C 293.98 245.55 291.68 247.73 291.37 250.45 L 293.58 250.45 C 293.89 248.9 295.28 247.7 297.06 247.7 C 298.85 247.7 300.24 248.9 300.55 250.45 L 302.76 250.45 C 302.45 247.71 300.11 245.52 297.06 245.52 C 297.04 245.52 297.01 245.52 296.99 245.52 Z M 298.27 248.95 L 298.27 250.45 L 299.95 250.45 C 299.8 249.84 299.4 249.31 298.84 248.95 Z M 303.3 248.95 C 303.48 249.42 303.6 249.93 303.64 250.45 L 305.17 250.45 L 305.17 251.14 L 308.52 251.14 L 308.52 248.95 Z M 289.65 251.18 L 289.65 260.56 L 304.44 260.56 L 304.44 251.17 Z M 297.05 254.34 C 297.89 254.34 298.58 255.02 298.58 255.87 C 298.58 256.71 297.89 257.4 297.05 257.4 C 296.2 257.4 295.51 256.71 295.51 255.87 C 295.51 255.02 296.2 254.34 297.05 254.34 Z M 305.17 254.8 L 305.17 256.99 L 308.52 256.99 L 308.52 254.8 Z M 285.48 260.65 L 285.48 262.84 L 289.51 262.84 L 289.51 261.29 L 288.92 261.29 L 288.92 260.65 Z M 305.17 260.65 L 305.17 261.29 L 292.42 261.29 L 292.42 262.84 L 308.52 262.84 L 308.52 260.65 Z" fill="#ffffff" stroke="none" pointer-events="all" style="fill: light-dark(rgb(255, 255, 255), rgb(18, 18, 18));"/>
            <g fill="#ffffff" font-family="&quot;Arial&quot;, &quot;Helvetica&quot;" text-anchor="middle" font-size="9.600000000000001px" style="fill: light-dark(rgb(255, 255, 255), rgb(18, 18, 18));">
                <text x="296.5" y="272.3">
                    secret
                </text>
            </g>
        </g>
        <g>
            <g transform="translate(-0.5 -0.5)">
                <switch>
                    <foreignObject style="overflow: visible; text-align: left;" pointer-events="none" width="100%" height="100%" requiredFeatures="http://www.w3.org/TR/SVG11/feature#Extensibility">
                        <div xmlns="http://www.w3.org/1999/xhtml" style="display: flex; align-items: unsafe flex-start; justify-content: unsafe center; width: 1px; height: 1px; padding-top: 288px; margin-left: 297px;">
                            <div style="box-sizing: border-box; font-size: 0; text-align: center; color: #000000; ">
                                <div style="display: inline-block; font-size: 12px; font-family: &quot;Helvetica&quot;; color: light-dark(#000000, #ffffff); line-height: 1.2; pointer-events: all; white-space: nowrap; ">
                                    Secret
                                </div>
                            </div>
                        </div>
                    </foreignObject>
                    <text x="297" y="300" fill="light-dark(#000000, #ffffff)" font-family="&quot;Helvetica&quot;" font-size="12px" text-anchor="middle">
                        Secret
                    </text>
                </switch>
            </g>
        </g>
        <g>
            <path d="M 190.82 281 L 190.22 361.63" fill="none" stroke="#000000" stroke-miterlimit="10" pointer-events="stroke" stroke-dasharray="8" style="stroke: light-dark(rgb(0, 0, 0), rgb(255, 255, 255)); animation: 500ms linear 0s infinite normal none running ge-flow-animation-hIQq5fXzEb5CmM2r5lTH; stroke-dashoffset: 16;"/>
            <path d="M 190.18 366.88 L 186.73 359.86 L 190.22 361.63 L 193.73 359.91 Z" fill="#000000" stroke="#000000" stroke-miterlimit="10" pointer-events="all" style="fill: light-dark(rgb(0, 0, 0), rgb(255, 255, 255)); stroke: light-dark(rgb(0, 0, 0), rgb(255, 255, 255));"/>
        </g>
        <g>
            <path d="M 190.82 233.03 C 190.38 233.05 189.94 233.16 189.56 233.36 L 172.37 241.55 C 171.47 241.99 170.81 242.81 170.59 243.77 L 166.34 262.22 C 166.15 263.07 166.31 263.98 166.78 264.72 C 166.86 264.8 166.92 264.88 166.97 264.99 L 178.87 279.77 C 179.5 280.53 180.46 281 181.45 281 L 200.53 281 C 201.51 281 202.47 280.53 203.1 279.77 L 215 264.96 C 215.6 264.2 215.85 263.18 215.63 262.22 L 211.38 243.77 C 211.16 242.81 210.5 241.99 209.6 241.55 L 192.41 233.36 C 191.92 233.11 191.37 233 190.82 233.03 Z" fill="#ffffff" stroke="none" pointer-events="all" style="fill: light-dark(rgb(255, 255, 255), rgb(18, 18, 18));"/>
            <path d="M 190.83 234.47 C 190.42 234.49 190.01 234.59 189.65 234.77 L 173.49 242.48 C 172.64 242.89 172.02 243.66 171.82 244.57 L 167.82 261.91 C 167.64 262.71 167.8 263.56 168.23 264.25 C 168.31 264.33 168.36 264.41 168.41 264.51 L 179.6 278.4 C 180.19 279.12 181.09 279.56 182.02 279.56 L 199.95 279.56 C 200.88 279.56 201.78 279.12 202.38 278.4 L 213.56 264.49 C 214.13 263.76 214.36 262.81 214.15 261.91 L 210.16 244.57 C 209.95 243.66 209.33 242.89 208.48 242.48 L 192.33 234.77 C 191.86 234.54 191.35 234.44 190.83 234.47 Z" fill="#2875e2" stroke="none" pointer-events="all" style="fill: light-dark(rgb(40, 117, 226), rgb(85, 151, 245));"/>
            <path d="M 205.4 248.51 L 205.4 263.83 L 191.99 271.26 L 191.92 252.52 Z M 176.6 248.51 L 176.6 263.83 L 190.02 271.26 L 190.09 252.52 Z M 176.6 246.91 L 191 242.74 L 205.4 246.91 L 191 251.09 Z" fill="#ffffff" stroke="none" pointer-events="all" style="fill: light-dark(rgb(255, 255, 255), rgb(18, 18, 18));"/>
        </g>
        <g>
            <g transform="translate(-0.5 -0.5)">
                <switch>
                    <foreignObject style="overflow: visible; text-align: left;" pointer-events="none" width="100%" height="100%" requiredFeatures="http://www.w3.org/TR/SVG11/feature#Extensibility">
                        <div xmlns="http://www.w3.org/1999/xhtml" style="display: flex; align-items: unsafe flex-start; justify-content: unsafe center; width: 1px; height: 1px; padding-top: 288px; margin-left: 191px;">
                            <div style="box-sizing: border-box; font-size: 0; text-align: center; color: #000000; ">
                                <div style="display: inline-block; font-size: 12px; font-family: &quot;Helvetica&quot;; color: light-dark(#000000, #ffffff); line-height: 1.2; pointer-events: all; white-space: nowrap; ">
                                    Posix
                                </div>
                            </div>
                        </div>
                    </foreignObject>
                    <text x="191" y="300" fill="light-dark(#000000, #ffffff)" font-family="&quot;Helvetica&quot;" font-size="12px" text-anchor="middle">
                        Posix
                    </text>
                </switch>
            </g>
        </g>
        <g>
            <path d="M 110 263.77 L 159.88 263.3" fill="none" stroke="#000000" stroke-miterlimit="10" pointer-events="stroke" style="stroke: light-dark(rgb(0, 0, 0), rgb(255, 255, 255));"/>
            <path d="M 165.13 263.25 L 158.17 266.82 L 159.88 263.3 L 158.1 259.82 Z" fill="#000000" stroke="#000000" stroke-miterlimit="10" pointer-events="all" style="fill: light-dark(rgb(0, 0, 0), rgb(255, 255, 255)); stroke: light-dark(rgb(0, 0, 0), rgb(255, 255, 255));"/>
        </g>
        <g>
            <path d="M 191 167 L 191 226.63" fill="none" stroke="#000000" stroke-miterlimit="10" pointer-events="stroke" stroke-dasharray="8" style="stroke: light-dark(rgb(0, 0, 0), rgb(255, 255, 255)); animation: 500ms linear 0s infinite normal none running ge-flow-animation-hIQq5fXzEb5CmM2r5lTH; stroke-dashoffset: 16;"/>
            <path d="M 191 231.88 L 187.5 224.88 L 191 226.63 L 194.5 224.88 Z" fill="#000000" stroke="#000000" stroke-miterlimit="10" pointer-events="all" style="fill: light-dark(rgb(0, 0, 0), rgb(255, 255, 255)); stroke: light-dark(rgb(0, 0, 0), rgb(255, 255, 255));"/>
        </g>
        <g>
            <rect x="34" y="92" width="312" height="247" fill="none" stroke="#000000" stroke-dasharray="8 8" pointer-events="all" style="stroke: light-dark(rgb(0, 0, 0), rgb(255, 255, 255));"/>
        </g>
        <g>
            <path d="M 215.75 263.24 L 265.88 263.24" fill="none" stroke="#000000" stroke-miterlimit="10" pointer-events="stroke" style="stroke: light-dark(rgb(0, 0, 0), rgb(255, 255, 255));"/>
            <path d="M 271.13 263.24 L 264.13 266.74 L 265.88 263.24 L 264.13 259.74 Z" fill="#000000" stroke="#000000" stroke-miterlimit="10" pointer-events="all" style="fill: light-dark(rgb(0, 0, 0), rgb(255, 255, 255)); stroke: light-dark(rgb(0, 0, 0), rgb(255, 255, 255));"/>
        </g>
        <g>
            <rect x="148.5" y="40" width="83" height="41" fill="none" stroke="none" pointer-events="all"/>
        </g>
        <g>
            <g transform="translate(-0.5 -0.5)">
                <switch>
                    <foreignObject style="overflow: visible; text-align: left;" pointer-events="none" width="100%" height="100%" requiredFeatures="http://www.w3.org/TR/SVG11/feature#Extensibility">
                        <div xmlns="http://www.w3.org/1999/xhtml" style="display: flex; align-items: unsafe center; justify-content: unsafe center; width: 1px; height: 1px; padding-top: 61px; margin-left: 190px;">
                            <div style="box-sizing: border-box; font-size: 0; text-align: center; color: #000000; ">
                                <div style="display: inline-block; font-size: 12px; font-family: &quot;Helvetica&quot;; color: light-dark(#000000, #ffffff); line-height: 1.2; pointer-events: all; white-space: nowrap; ">
                                    namespace:
                                    <br/>
                                    smtp-relay
                                </div>
                            </div>
                        </div>
                    </foreignObject>
                    <text x="190" y="64" fill="light-dark(#000000, #ffffff)" font-family="&quot;Helvetica&quot;" font-size="12px" text-anchor="middle">
                        namespace:...
                    </text>
                </switch>
            </g>
        </g>
        <g>
            <path d="M 420.82 126.03 C 420.38 126.05 419.94 126.16 419.56 126.36 L 402.37 134.55 C 401.47 134.99 400.81 135.81 400.59 136.77 L 396.34 155.22 C 396.15 156.07 396.31 156.98 396.78 157.72 C 396.86 157.8 396.92 157.88 396.97 157.99 L 408.87 172.77 C 409.5 173.53 410.46 174 411.45 174 L 430.53 174 C 431.51 174 432.47 173.53 433.1 172.77 L 445 157.96 C 445.6 157.2 445.85 156.18 445.63 155.22 L 441.38 136.77 C 441.16 135.81 440.5 134.99 439.6 134.55 L 422.41 126.36 C 421.92 126.11 421.37 126 420.82 126.03 Z" fill="#ffffff" stroke="none" pointer-events="all" style="fill: light-dark(rgb(255, 255, 255), rgb(18, 18, 18));"/>
            <path d="M 420.83 127.47 C 420.42 127.49 420.01 127.59 419.65 127.77 L 403.49 135.48 C 402.64 135.89 402.02 136.66 401.82 137.57 L 397.82 154.91 C 397.64 155.71 397.8 156.56 398.23 157.25 C 398.31 157.33 398.36 157.41 398.41 157.51 L 409.6 171.4 C 410.19 172.12 411.09 172.56 412.02 172.56 L 429.95 172.56 C 430.88 172.56 431.78 172.12 432.38 171.4 L 443.56 157.49 C 444.13 156.76 444.36 155.81 444.15 154.91 L 440.16 137.57 C 439.95 136.66 439.33 135.89 438.48 135.48 L 422.33 127.77 C 421.86 127.54 421.35 127.44 420.83 127.47 Z" fill="#2875e2" stroke="none" pointer-events="all" style="fill: light-dark(rgb(40, 117, 226), rgb(85, 151, 245));"/>
            <path d="M 435.4 141.51 L 435.4 156.83 L 421.99 164.26 L 421.92 145.52 Z M 406.6 141.51 L 406.6 156.83 L 420.02 164.26 L 420.09 145.52 Z M 406.6 139.91 L 421 135.74 L 435.4 139.91 L 421 144.09 Z" fill="#ffffff" stroke="none" pointer-events="all" style="fill: light-dark(rgb(255, 255, 255), rgb(18, 18, 18));"/>
        </g>
        <g>
            <g transform="translate(-0.5 -0.5)">
                <switch>
                    <foreignObject style="overflow: visible; text-align: left;" pointer-events="none" width="100%" height="100%" requiredFeatures="http://www.w3.org/TR/SVG11/feature#Extensibility">
                        <div xmlns="http://www.w3.org/1999/xhtml" style="display: flex; align-items: unsafe flex-start; justify-content: unsafe center; width: 1px; height: 1px; padding-top: 181px; margin-left: 421px;">
                            <div style="box-sizing: border-box; font-size: 0; text-align: center; color: #000000; ">
                                <div style="display: inline-block; font-size: 12px; font-family: &quot;Helvetica&quot;; color: light-dark(#000000, #ffffff); line-height: 1.2; pointer-events: all; white-space: nowrap; ">
                                    App
                                </div>
                            </div>
                        </div>
                    </foreignObject>
                    <text x="421" y="193" fill="light-dark(#000000, #ffffff)" font-family="&quot;Helvetica&quot;" font-size="12px" text-anchor="middle">
                        App
                    </text>
                </switch>
            </g>
        </g>
        <g>
            <rect x="366" y="92" width="110" height="142" fill="none" stroke="#000000" stroke-dasharray="8 8" pointer-events="all" style="stroke: light-dark(rgb(0, 0, 0), rgb(255, 255, 255));"/>
        </g>
        <g>
            <rect x="379.5" y="40" width="83" height="41" fill="none" stroke="none" pointer-events="all"/>
        </g>
        <g>
            <g transform="translate(-0.5 -0.5)">
                <switch>
                    <foreignObject style="overflow: visible; text-align: left;" pointer-events="none" width="100%" height="100%" requiredFeatures="http://www.w3.org/TR/SVG11/feature#Extensibility">
                        <div xmlns="http://www.w3.org/1999/xhtml" style="display: flex; align-items: unsafe center; justify-content: unsafe center; width: 1px; height: 1px; padding-top: 61px; margin-left: 421px;">
                            <div style="box-sizing: border-box; font-size: 0; text-align: center; color: #000000; ">
                                <div style="display: inline-block; font-size: 12px; font-family: &quot;Helvetica&quot;; color: light-dark(#000000, #ffffff); line-height: 1.2; pointer-events: all; white-space: nowrap; ">
                                    namespace:
                                    <br/>
                                    application
                                </div>
                            </div>
                        </div>
                    </foreignObject>
                    <text x="421" y="64" fill="light-dark(#000000, #ffffff)" font-family="&quot;Helvetica&quot;" font-size="12px" text-anchor="middle">
                        namespace:...
                    </text>
                </switch>
            </g>
        </g>
        <g>
            <path d="M 171.94 414 C 170.63 414 169.37 413.48 168.45 412.54 C 167.52 411.61 167 410.35 167 409.03 L 167 372.97 C 167 371.65 167.52 370.39 168.45 369.46 C 169.37 368.52 170.63 368 171.94 368 L 208.06 368 C 209.37 368 210.63 368.52 211.55 369.46 C 212.48 370.39 213 371.65 213 372.97 L 213 409.03 C 213 410.35 212.48 411.61 211.55 412.54 C 210.63 413.48 209.37 414 208.06 414 Z" fill="url(#drawio-svg-4bYG-oQUSJfMO6u7vfX1-gradient-light-dark_ffffff_var_--ge-dark-color_121212_-1-light-dark_dfdede_2f2e2e_-1-s-0)" stroke="none" pointer-events="all" style="fill: url(&quot;#drawio-svg-4bYG-oQUSJfMO6u7vfX1-gradient-light-dark_ffffff_var_--ge-dark-color_121212_-1-light-dark_dfdede_2f2e2e_-1-s-0&quot;);"/>
            <path d="M 177.95 400.23 L 177.51 379.03 L 203.14 379.06 L 203.46 400.25 Z" fill="#fffef9" stroke="none" pointer-events="all" style="fill: light-dark(rgb(255, 254, 249), rgb(20, 19, 15));"/>
            <path d="M 178.69 399.73 L 202.75 383.3 L 203.46 400.25 L 201.39 400.25 L 190.06 392.58 L 178.98 400.23 L 178.69 400.24 Z" fill="#ccccbe" stroke="none" pointer-events="all" style="fill: light-dark(rgb(204, 204, 190), rgb(64, 64, 52));"/>
            <path d="M 178.69 400.24 L 176.77 400.23 C 176.09 400.23 175.47 399.67 175.47 398.93 L 175.48 380.42 C 175.48 379.66 176.11 379.06 176.72 379.06 L 177.59 379.04 L 190.04 388.06 L 201.52 379.8 L 201.56 384.3 L 190.06 392.58 L 178.69 384.36 Z" fill="#ed4335" stroke="none" pointer-events="all" style="fill: light-dark(rgb(237, 67, 53), rgb(255, 119, 107));"/>
            <path d="M 201.39 400.25 L 201.38 379.9 L 202.64 379.05 L 203.45 379.07 C 204 379.07 204.61 379.64 204.61 380.37 L 204.61 398.84 C 204.61 399.82 203.83 400.25 203.46 400.25 Z" fill="#a6332a" stroke="none" pointer-events="all" style="fill: light-dark(rgb(166, 51, 42), rgb(251, 152, 144));"/>
            <path d="M 167 372.97 C 167 371.65 167.52 370.39 168.45 369.46 C 169.37 368.52 170.63 368 171.94 368 L 208.06 368 C 209.37 368 210.63 368.52 211.55 369.46 C 212.48 370.39 213 371.65 213 372.97 L 213 385.09 C 198.48 392.22 181.52 392.22 167 385.09 Z" fill-opacity="0.2" fill="#ffffff" stroke="none" pointer-events="all" style="fill: light-dark(rgb(255, 255, 255), rgb(18, 18, 18));"/>
        </g>
        <g>
            <path d="M 396 149.91 L 222.12 149.26" fill="none" stroke="#000000" stroke-miterlimit="10" pointer-events="stroke" stroke-dasharray="8" style="stroke: light-dark(rgb(0, 0, 0), rgb(255, 255, 255)); animation: 500ms linear 0s infinite normal none running ge-flow-animation-hIQq5fXzEb5CmM2r5lTH; stroke-dashoffset: 16;"/>
            <path d="M 216.87 149.24 L 223.88 145.77 L 222.12 149.26 L 223.85 152.77 Z" fill="#000000" stroke="#000000" stroke-miterlimit="10" pointer-events="all" style="fill: light-dark(rgb(0, 0, 0), rgb(255, 255, 255)); stroke: light-dark(rgb(0, 0, 0), rgb(255, 255, 255));"/>
        </g>
        <g>
            <path d="M 446 390.03 L 460.01 389.43 Q 470 389 470 379 L 470 311 Q 470 301 460.16 300.89 L 450.32 300.79" fill="none" stroke="#000000" stroke-miterlimit="10" pointer-events="stroke" stroke-dasharray="8" style="stroke: light-dark(rgb(0, 0, 0), rgb(255, 255, 255)); animation: 500ms linear 0s infinite normal none running ge-flow-animation-hIQq5fXzEb5CmM2r5lTH; stroke-dashoffset: 16;"/>
            <path d="M 445.07 300.73 L 452.11 297.31 L 450.32 300.79 L 452.03 304.31 Z" fill="#000000" stroke="#000000" stroke-miterlimit="10" pointer-events="all" style="fill: light-dark(rgb(0, 0, 0), rgb(255, 255, 255)); stroke: light-dark(rgb(0, 0, 0), rgb(255, 255, 255));"/>
        </g>
        <g>
            <rect x="401" y="377.5" width="45" height="27" fill="#ffffff" stroke="#999999" pointer-events="all" style="fill: light-dark(#ffffff, var(--ge-dark-color, #121212)); stroke: light-dark(rgb(153, 153, 153), rgb(106, 106, 106));"/>
            <path d="M 401 377.5 L 423.5 391 L 446 377.5" fill="none" stroke="#999999" stroke-miterlimit="10" pointer-events="all" style="stroke: light-dark(rgb(153, 153, 153), rgb(106, 106, 106));"/>
        </g>
        <g>
            <path d="M 213 391 L 391.03 392.15" fill="none" stroke="#000000" stroke-miterlimit="10" pointer-events="stroke" stroke-dasharray="8" style="stroke: light-dark(rgb(0, 0, 0), rgb(255, 255, 255)); animation: 500ms linear 0s infinite normal none running ge-flow-animation-hIQq5fXzEb5CmM2r5lTH; stroke-dashoffset: 16;"/>
            <path d="M 396.28 392.18 L 389.26 395.64 L 391.03 392.15 L 389.3 388.64 Z" fill="#000000" stroke="#000000" stroke-miterlimit="10" pointer-events="all" style="fill: light-dark(rgb(0, 0, 0), rgb(255, 255, 255)); stroke: light-dark(rgb(0, 0, 0), rgb(255, 255, 255));"/>
        </g>
        <g>
            <rect x="185.4" y="320" width="11.2" height="7" fill="#ffffff" stroke="#0080f0" stroke-width="2" pointer-events="all" style="fill: light-dark(#ffffff, var(--ge-dark-color, #121212)); stroke: light-dark(rgb(0, 128, 240), rgb(50, 160, 255));"/>
            <path d="M 186.8 320 L 186.8 317.2 C 186.8 314.88 188.68 313 191 313 C 193.32 313 195.2 314.88 195.2 317.2 L 195.2 320" fill="none" stroke="#0080f0" stroke-width="2" stroke-miterlimit="10" pointer-events="all" style="stroke: light-dark(rgb(0, 128, 240), rgb(50, 160, 255));"/>
        </g>
        <g>
            <rect x="401" y="278" width="45" height="45" fill="none" stroke="none" pointer-events="all"/>
            <path d="M 405.12 320.95 C 405.63 310.81 413.68 302.73 423.5 302.73 C 426.82 302.73 430.08 303.66 432.91 305.43 C 438.18 308.72 441.55 314.6 441.88 320.95 Z M 413.47 290.15 C 413.47 284.58 417.97 280.05 423.5 280.05 C 429.03 280.05 433.53 284.58 433.53 290.15 C 433.53 295.72 429.03 300.25 423.5 300.25 C 417.97 300.25 413.47 295.72 413.47 290.15 Z M 434 303.7 C 432.22 302.59 430.3 301.79 428.3 301.29 C 432.58 299.41 435.58 295.13 435.58 290.15 C 435.58 283.45 430.16 278 423.5 278 C 416.84 278 411.42 283.45 411.42 290.15 C 411.42 295.14 414.43 299.43 418.71 301.3 C 409.74 303.55 403.05 311.95 403.05 321.98 C 403.05 322.54 403.5 323 404.07 323 L 442.93 323 C 443.5 323 443.95 322.54 443.95 321.98 C 443.95 314.53 440.14 307.53 434 303.7 Z" fill="#232f3d" stroke="none" pointer-events="all" style="fill: light-dark(rgb(35, 47, 61), rgb(190, 200, 212));"/>
        </g>
        <g>
            <g transform="translate(-0.5 -0.5)">
                <switch>
                    <foreignObject style="overflow: visible; text-align: left;" pointer-events="none" width="100%" height="100%" requiredFeatures="http://www.w3.org/TR/SVG11/feature#Extensibility">
                        <div xmlns="http://www.w3.org/1999/xhtml" style="display: flex; align-items: unsafe flex-start; justify-content: unsafe center; width: 1px; height: 1px; padding-top: 330px; margin-left: 424px;">
                            <div style="box-sizing: border-box; font-size: 0; text-align: center; color: #232F3E; ">
                                <div style="display: inline-block; font-size: 12px; font-family: &quot;Helvetica&quot;; color: light-dark(#232F3E, #bdc7d4); line-height: 1.2; pointer-events: all; white-space: nowrap; ">
                                    Client
                                </div>
                            </div>
                        </div>
                    </foreignObject>
                    <text x="424" y="342" fill="#232F3E" font-family="&quot;Helvetica&quot;" font-size="12px" text-anchor="middle">
                        Client
                    </text>
                </switch>
            </g>
        </g>
    </g>
    <switch>
        <g requiredFeatures="http://www.w3.org/TR/SVG11/feature#Extensibility"/>
        <a transform="translate(0,-5)" xlink:href="https://www.drawio.com/doc/faq/svg-export-text-problems" target="_blank">
            <text text-anchor="middle" font-size="10px" x="50%" y="100%">
                Text is not SVG - cannot display
            </text>
        </a>
    </switch>
</svg>